<svg height="512pt" viewBox="0 0 512 512" width="512pt" xmlns="http://www.w3.org/2000/svg"><path d="m469.332031 0h-426.664062c-23.554688.0273438-42.6406252 19.113281-42.667969 42.667969v426.664062c.0273438 23.554688 19.113281 42.640625 42.667969 42.667969h426.664062c23.554688-.027344 42.640625-19.113281 42.667969-42.667969v-426.664062c-.027344-23.554688-19.113281-42.6406252-42.667969-42.667969zm0 494.933594h-426.664062c-14.132813-.015625-25.585938-11.46875-25.601563-25.601563v-59.730469h34.132813c4.714843 0 8.535156-3.820312 8.535156-8.535156 0-4.710937-3.820313-8.53125-8.535156-8.53125h-34.132813v-349.867187c.015625-14.132813 11.46875-25.585938 25.601563-25.601563h426.664062c14.132813.015625 25.585938 11.46875 25.601563 25.601563v349.867187h-273.066406c-4.714844 0-8.535157 3.820313-8.535157 8.53125 0 4.714844 3.820313 8.535156 8.535157 8.535156h273.066406v59.730469c-.015625 14.132813-11.46875 25.585938-25.601563 25.601563zm0 0"/><path d="m85.332031 128c0 28.277344 22.925781 51.199219 51.203125 51.199219 28.273438 0 51.199219-22.921875 51.199219-51.199219s-22.925781-51.199219-51.199219-51.199219c-28.265625.03125-51.171875 22.933594-51.203125 51.199219zm85.335938 0c0 18.851562-15.285157 34.132812-34.132813 34.132812-18.851562 0-34.136718-15.28125-34.136718-34.132812s15.285156-34.132812 34.136718-34.132812c18.839844.019531 34.109375 15.289062 34.132813 34.132812zm0 0"/><path d="m375.464844 264.535156c-23.5625 0-42.664063 19.101563-42.664063 42.664063 0 23.566406 19.101563 42.667969 42.664063 42.667969 23.566406 0 42.667968-19.101563 42.667968-42.667969-.027343-23.550781-19.113281-42.636719-42.667968-42.664063zm0 68.265625c-14.136719 0-25.597656-11.460937-25.597656-25.601562 0-14.136719 11.460937-25.597657 25.597656-25.597657 14.140625 0 25.601562 11.460938 25.601562 25.597657-.015625 14.132812-11.46875 25.585937-25.601562 25.601562zm0 0"/><path d="m136.535156 366.933594c32.988282 0 59.730469-26.742188 59.730469-59.734375 0-32.988281-26.742187-59.734375-59.730469-59.734375-32.992187 0-59.734375 26.746094-59.734375 59.734375.035157 32.976562 26.757813 59.699219 59.734375 59.734375zm0-102.398438c23.5625 0 42.664063 19.101563 42.664063 42.664063 0 23.566406-19.101563 42.667969-42.664063 42.667969-23.566406 0-42.667968-19.101563-42.667968-42.667969.027343-23.550781 19.113281-42.636719 42.667968-42.664063zm0 0"/><path d="m375.464844 221.867188c51.84375 0 93.867187-42.027344 93.867187-93.867188s-42.023437-93.867188-93.867187-93.867188c-51.839844 0-93.863282 42.027344-93.863282 93.867188.058594 51.816406 42.046876 93.808594 93.863282 93.867188zm0-170.667969c42.417968 0 76.800781 34.386719 76.800781 76.800781s-34.382813 76.800781-76.800781 76.800781c-42.414063 0-76.796875-34.386719-76.796875-76.800781.046875-42.394531 34.402343-76.753906 76.796875-76.800781zm0 0"/><path d="m375.464844 170.667969c23.566406 0 42.667968-19.105469 42.667968-42.667969s-19.101562-42.667969-42.667968-42.667969c-23.5625 0-42.664063 19.105469-42.664063 42.667969.027344 23.550781 19.113281 42.640625 42.664063 42.667969zm0-68.269531c14.140625 0 25.601562 11.464843 25.601562 25.601562s-11.460937 25.601562-25.601562 25.601562c-14.136719 0-25.597656-11.464843-25.597656-25.601562.015624-14.132812 11.46875-25.585938 25.597656-25.601562zm0 0"/><path d="m85.332031 426.667969c-14.136719 0-25.597656 11.460937-25.597656 25.597656 0 14.140625 11.460937 25.601563 25.597656 25.601563 14.140625 0 25.601563-11.460938 25.601563-25.601563-.015625-14.132813-11.46875-25.582031-25.601563-25.597656zm0 34.132812c-4.710937 0-8.53125-3.820312-8.53125-8.535156 0-4.710937 3.820313-8.53125 8.53125-8.53125 4.714844 0 8.535157 3.820313 8.535157 8.53125-.007813 4.710937-3.824219 8.527344-8.535157 8.535156zm0 0"/><path d="m153.601562 426.667969c-14.140624 0-25.601562 11.460937-25.601562 25.597656 0 14.140625 11.460938 25.601563 25.601562 25.601563 14.136719 0 25.597657-11.460938 25.597657-25.601563-.015625-14.132813-11.46875-25.582031-25.597657-25.597656zm0 34.132812c-4.714843 0-8.535156-3.820312-8.535156-8.535156 0-4.710937 3.820313-8.53125 8.535156-8.53125 4.710938 0 8.53125 3.820313 8.53125 8.53125-.003906 4.710937-3.824218 8.527344-8.53125 8.535156zm0 0"/><path d="m221.867188 426.667969c-14.140626 0-25.601563 11.460937-25.601563 25.597656 0 14.140625 11.460937 25.601563 25.601563 25.601563 14.136718 0 25.597656-11.460938 25.597656-25.601563-.015625-14.132813-11.464844-25.582031-25.597656-25.597656zm0 34.132812c-4.714844 0-8.535157-3.820312-8.535157-8.535156 0-4.710937 3.820313-8.53125 8.535157-8.53125 4.710937 0 8.53125 3.820313 8.53125 8.53125-.003907 4.710937-3.820313 8.527344-8.53125 8.535156zm0 0"/><path d="m290.132812 426.667969c-14.136718 0-25.597656 11.460937-25.597656 25.597656 0 14.140625 11.460938 25.601563 25.597656 25.601563 14.140626 0 25.601563-11.460938 25.601563-25.601563-.015625-14.132813-11.46875-25.582031-25.601563-25.597656zm0 34.132812c-4.710937 0-8.53125-3.820312-8.53125-8.535156 0-4.710937 3.820313-8.53125 8.53125-8.53125 4.714844 0 8.535157 3.820313 8.535157 8.53125-.007813 4.710937-3.824219 8.527344-8.535157 8.535156zm0 0"/><path d="m51.199219 34.132812h-8.53125c-4.714844 0-8.535157 3.820313-8.535157 8.535157 0 4.710937 3.820313 8.53125 8.535157 8.53125h8.53125c4.714843 0 8.535156-3.820313 8.535156-8.53125 0-4.714844-3.820313-8.535157-8.535156-8.535157zm0 0"/><path d="m85.332031 51.199219h162.132813c4.714844 0 8.535156-3.820313 8.535156-8.53125 0-4.714844-3.820312-8.535157-8.535156-8.535157h-162.132813c-4.710937 0-8.53125 3.820313-8.53125 8.535157 0 4.710937 3.820313 8.53125 8.53125 8.53125zm0 0"/></svg>